<svg version="1.1" id="Layer_1" xmlns="http://www.w3.org/2000/svg" xmlns:xlink="http://www.w3.org/1999/xlink" x="0px" y="0px"
	 width="100%" viewBox="0 0 352 352" enable-background="new 0 0 352 352" xml:space="preserve">
<path fill="currentColor" opacity="1.000000" stroke="none" 
	d="
M226.327881,313.512360 
	C201.026825,322.786957 175.370987,325.817352 148.900711,323.554718 
	C135.268600,322.389465 121.806892,320.559143 108.538002,317.329773 
	C104.768234,316.412292 100.752556,315.701843 98.350952,311.666016 
	C101.355011,312.649384 104.317558,313.791931 107.370491,314.587830 
	C119.014999,317.623718 131.012039,318.306549 142.905289,319.565033 
	C162.202103,321.606873 181.478760,321.135742 200.589401,317.619324 
	C212.742447,315.383179 224.526596,311.829071 235.589493,306.175812 
	C239.472809,304.191376 243.012054,301.720123 246.019684,298.529510 
	C250.104706,294.195923 249.364700,290.484375 243.836044,288.101868 
	C239.472656,286.221558 234.878052,285.743622 229.739807,286.130432 
	C230.544022,287.879333 232.147949,287.985687 233.285126,288.605316 
	C235.851898,290.003906 238.367569,291.579437 238.548767,294.752563 
	C238.738235,298.070465 236.042908,299.696320 233.603760,301.115051 
	C225.280548,305.956024 216.069061,308.365387 206.733978,310.098938 
	C182.663132,314.568878 158.477036,314.945251 134.251617,311.325989 
	C131.838989,310.965576 129.310104,310.744568 126.846115,308.530762 
	C131.250214,307.908936 134.895920,309.487915 138.627731,309.826599 
	C165.345062,312.251587 191.823761,311.336395 217.887344,304.483887 
	C223.194992,303.088440 228.393204,301.136444 233.030823,298.097076 
	C236.521164,295.809631 236.580276,293.637329 232.932693,291.816345 
	C226.794922,288.752106 220.565445,287.426331 214.001724,291.423645 
	C192.946716,304.246185 170.626968,303.353699 147.937027,296.909088 
	C145.972290,296.351044 143.788086,295.615143 142.490326,293.241852 
	C144.162308,292.058075 145.633560,293.286987 147.117493,293.445007 
	C169.451660,295.823059 191.360184,295.340454 211.285385,283.054474 
	C222.790939,275.960083 230.035812,265.240875 235.430908,253.191238 
	C241.661774,239.274918 244.940811,224.503723 247.392288,209.532303 
	C248.123062,205.069489 246.364746,203.505249 242.080673,205.057083 
	C212.921112,215.619659 182.497208,217.024200 152.000000,216.948547 
	C137.417709,216.912369 122.712921,216.168015 108.453285,212.292847 
	C105.728409,211.552338 103.078339,210.539917 100.380463,209.695404 
	C98.548920,209.122086 96.691780,207.356781 94.781136,208.887650 
	C92.671700,210.577774 93.210030,213.162140 93.602394,215.425858 
	C95.531029,226.552948 97.136124,237.755905 100.886856,248.484543 
	C101.261055,249.554886 101.764145,250.664612 101.073997,251.778015 
	C100.204308,252.196075 99.811081,251.669373 99.547813,251.048920 
	C92.273582,233.906097 87.836220,216.083084 86.655807,197.469193 
	C86.455681,194.313538 87.652397,192.529083 90.464874,190.718384 
	C101.735176,183.462372 114.525444,181.190369 127.286789,178.947189 
	C142.551956,176.263916 158.039093,175.673203 173.502228,175.061417 
	C176.972763,174.924103 176.974686,174.972870 181.364304,176.790375 
	C173.361633,177.717438 166.557526,178.265091 159.835526,179.330811 
	C141.777588,182.193726 123.621010,184.689178 106.216217,190.609116 
	C102.437225,191.894485 98.065300,192.767181 96.416122,197.384720 
	C98.281731,199.887009 100.393997,198.820206 102.330803,198.038910 
	C119.968124,190.924042 138.485703,188.265366 157.285370,186.562119 
	C177.418442,184.738068 197.500198,184.865311 217.581589,186.752640 
	C225.686600,187.514374 233.771790,188.648956 241.677429,190.738922 
	C242.801605,191.036133 243.917999,191.544861 245.051819,191.587357 
	C247.760010,191.688828 251.106964,192.864594 252.356918,189.188034 
	C253.479980,185.884705 251.185379,183.833313 248.663010,182.316574 
	C238.897903,176.444580 227.932037,174.124786 216.917984,172.434387 
	C194.756088,169.033096 172.462708,169.942596 150.159210,171.003250 
	C139.270248,171.521057 128.336288,171.092850 117.328186,171.092850 
	C118.140221,168.806839 120.531456,168.807800 122.476730,168.806137 
	C145.796295,168.786072 168.977325,165.150513 192.301514,165.900360 
	C209.776459,166.462189 227.204147,167.907257 243.709702,174.510834 
	C245.561066,175.251541 247.403244,176.055191 249.149078,177.013000 
	C257.915894,181.822723 259.203888,186.878891 254.927353,195.996124 
	C252.401978,201.380066 251.881973,207.278992 252.858444,213.124191 
	C255.678009,213.641815 256.658173,211.761246 257.985931,210.662201 
	C263.852478,205.806168 270.707428,203.319763 278.154816,202.883270 
	C290.394897,202.165939 298.167267,213.044281 294.873047,226.432556 
	C291.734497,239.188141 284.346741,248.533569 271.669342,253.165558 
	C266.353546,255.107834 261.071564,257.142487 255.766907,259.115479 
	C245.680176,262.867126 237.178741,268.772308 231.046661,277.717346 
	C229.985016,279.265991 227.457962,279.032257 227.197754,281.604187 
	C230.049942,283.413605 233.489212,282.918854 236.631042,283.538574 
	C239.087189,284.023010 241.537399,284.419739 243.869553,285.355560 
	C252.493729,288.816223 253.831329,294.746063 247.290100,301.455017 
	C241.568436,307.323425 234.152405,310.425781 226.327881,313.512360 
M262.623016,215.073685 
	C247.961151,223.654663 247.397888,239.010468 243.340897,253.425903 
	C244.957458,253.425903 245.660507,253.607254 246.217789,253.398819 
	C255.093979,250.078903 264.088531,247.024612 272.771118,243.253586 
	C280.068695,240.084137 285.172668,234.338028 287.936615,226.802353 
	C291.836914,216.168564 287.462738,210.096405 276.302307,210.255035 
	C271.427826,210.324341 267.315887,212.410110 262.623016,215.073685 
z"/>
<path fill="currentColor" opacity="1.000000" stroke="none" 
	d="
M216.894119,117.427811 
	C218.549500,117.859581 218.554977,117.864876 220.008194,116.362144 
	C224.671143,111.540291 229.502808,107.092491 236.385818,105.488129 
	C252.174576,101.807938 262.869080,112.549744 258.891266,128.249344 
	C256.120361,139.185547 248.218124,145.286758 238.417908,149.178757 
	C227.355530,153.571991 215.847260,156.100784 203.814362,155.263916 
	C200.427139,155.028320 197.677856,155.355087 196.620331,159.471542 
	C195.644028,163.271927 192.512115,161.248581 190.189178,161.562897 
	C189.771393,159.374481 190.590271,157.764069 191.889420,156.824814 
	C196.081940,153.793655 194.668320,150.455811 192.473572,147.302963 
	C185.931671,137.905167 182.737900,127.262283 181.130615,116.164497 
	C179.535675,105.151764 181.050552,94.787262 190.425980,87.187561 
	C195.829895,82.807175 201.891190,80.884453 208.528046,84.087502 
	C215.266129,87.339409 218.434555,93.253029 219.270996,100.443253 
	C219.937546,106.172913 218.489563,111.687729 216.894119,117.427811 
M199.740982,152.465012 
	C202.721985,152.284302 205.700851,152.005463 208.684387,151.940216 
	C220.362259,151.684860 231.350922,148.733505 241.659637,143.353104 
	C248.599869,139.730789 253.433426,134.318832 255.238785,126.416908 
	C257.033386,118.562027 253.176788,112.131042 245.425034,110.105782 
	C238.770782,108.367249 233.316147,110.876808 228.270294,114.667755 
	C222.123489,119.285866 216.532684,124.488953 212.714417,131.323120 
	C212.528595,131.655716 211.937500,131.761887 211.314209,132.089676 
	C211.260773,130.989319 211.219131,130.131989 211.178772,129.301025 
	C210.005203,129.271072 209.134720,131.170486 208.007828,129.309494 
	C212.716415,120.545380 215.308578,111.159081 214.623352,101.136642 
	C214.196350,94.890930 211.106277,89.797905 205.092239,87.668243 
	C199.554535,85.707268 194.634064,87.906013 190.746994,92.198547 
	C188.032715,95.195969 186.174072,98.608994 185.172073,102.615524 
	C183.366257,109.836128 184.658371,116.801010 186.311844,123.780685 
	C188.763702,134.130630 192.891724,143.740997 199.740982,152.465012 
z"/>
<path fill="currentColor" opacity="1.000000" stroke="none" 
	d="
M173.913132,102.277939 
	C174.662613,96.058586 171.285645,94.318138 166.240326,93.200958 
	C153.322433,90.340576 141.886688,84.388596 132.320541,75.150230 
	C125.405914,68.472534 122.428596,60.276024 123.735100,50.689369 
	C124.552956,44.688213 127.301842,39.921024 133.289932,37.771675 
	C140.913834,35.035164 147.705994,37.061592 153.784042,41.956993 
	C158.505707,45.759926 161.125092,51.198254 164.629196,57.223801 
	C165.181870,51.459530 164.396103,46.646729 165.639450,42.010529 
	C166.024872,40.573402 166.195389,39.066620 166.693359,37.673622 
	C170.307785,27.563183 179.137314,21.368931 187.778610,22.811642 
	C195.818405,24.153927 203.682220,34.380142 204.364990,43.756920 
	C205.350555,57.291798 199.166367,68.210297 192.063660,78.822807 
	C190.129150,81.713272 188.048965,84.601089 185.573654,87.016739 
	C178.510818,93.909332 178.417282,93.813477 178.941299,101.929512 
	C177.562668,102.714668 177.652100,100.666008 176.617859,100.746597 
	C175.731125,101.829979 177.173416,103.365463 175.959442,104.426292 
	C174.539185,104.684151 174.541000,103.368202 173.913132,102.277939 
M167.267715,68.135139 
	C167.215302,68.784645 167.302902,69.501282 165.927216,69.968239 
	C163.650146,62.319530 159.513016,55.619087 154.764481,49.239567 
	C151.838303,45.308361 148.041473,42.874138 143.354187,41.728474 
	C134.646744,39.600193 127.874100,44.871300 127.281036,53.854061 
	C126.651047,63.396198 131.624573,69.955414 138.358963,75.584389 
	C149.154892,84.608215 161.909119,89.559242 175.275314,92.932663 
	C177.360489,90.700325 179.421432,88.547432 181.423630,86.341255 
	C190.387161,76.464546 197.261810,65.397324 200.171799,52.230206 
	C201.851395,44.630344 200.239456,37.642414 194.884430,31.829895 
	C189.910706,26.431257 183.840790,25.918566 177.885910,30.224483 
	C173.814041,33.168804 171.249115,37.099216 170.229706,42.079845 
	C168.778107,49.172001 169.175308,56.315395 169.350250,63.465233 
	C169.395233,65.304314 171.093369,67.049782 170.055756,68.874115 
	C168.504364,69.200287 168.792282,66.734848 167.267715,68.135139 
z"/>
</svg>