<?xml version="1.0" standalone="no"?>
<!DOCTYPE svg PUBLIC "-//W3C//DTD SVG 20010904//EN"
 "http://www.w3.org/TR/2001/REC-SVG-20010904/DTD/svg10.dtd">
<svg version="1.0" xmlns="http://www.w3.org/2000/svg"
 width="512.000000pt" height="512.000000pt" viewBox="0 0 512.000000 512.000000"
 preserveAspectRatio="xMidYMid meet">

<g transform="translate(0.000000,512.000000) scale(0.100000,-0.100000)"
fill="currentColor" stroke="none">
<path d="M1715 5106 c-176 -41 -344 -167 -420 -315 -29 -58 -72 -99 -116 -111
-18 -6 -73 -10 -122 -10 -224 0 -406 -77 -567 -240 -305 -308 -320 -810 -34
-1120 48 -52 147 -134 190 -158 12 -7 -18 -208 -165 -1132 l-178 -1125 87
-423 c49 -232 91 -434 94 -447 l6 -25 1553 2 1552 3 86 417 c48 230 89 428 93
441 5 23 11 25 102 31 563 42 994 504 994 1065 0 432 -280 834 -689 987 -148
55 -212 65 -488 71 l-252 6 -10 66 c-6 36 -19 118 -30 181 l-18 115 32 36
c239 269 83 711 -271 769 -33 6 -143 10 -245 10 -210 0 -250 8 -318 67 -65 55
-92 119 -102 238 -14 179 -70 304 -189 424 -74 74 -148 122 -248 158 -84 31
-236 40 -327 19z m208 -311 c69 -18 122 -50 166 -100 51 -58 71 -117 81 -235
16 -175 67 -289 179 -400 64 -63 142 -112 233 -147 34 -13 95 -18 289 -22
l246 -6 36 -28 c47 -36 67 -75 67 -129 0 -52 -28 -101 -72 -128 -29 -18 -51
-20 -190 -20 l-158 0 0 -427 c0 -396 -2 -431 -19 -469 -27 -59 -73 -89 -138
-89 -56 0 -90 18 -127 69 -20 26 -21 43 -26 469 l-5 442 -490 3 -489 2 -71
-69 c-114 -113 -226 -161 -370 -161 -142 1 -253 47 -354 149 -99 99 -151 219
-151 351 0 209 126 397 321 476 54 22 87 28 209 34 157 9 227 27 305 80 59 40
130 120 160 180 56 111 166 185 280 189 17 1 56 -6 88 -14z m257 -1830 c0
-272 2 -301 21 -357 23 -70 72 -150 118 -192 l31 -30 0 -503 0 -503 155 0 155
0 0 448 0 448 63 12 c122 23 243 102 307 202 67 105 73 133 79 380 l6 225 161
-1015 c89 -558 161 -1016 160 -1018 -2 -1 -630 -1 -1397 0 l-1395 3 158 985
c86 542 157 986 157 986 1 1 61 4 134 6 114 4 144 9 226 37 102 34 204 90 266
145 l40 35 278 1 277 0 0 -295z m1811 -284 c263 -68 474 -277 544 -536 106
-397 -141 -815 -544 -920 -72 -19 -261 -32 -261 -19 0 5 -54 342 -119 749 -65
407 -116 744 -113 749 3 5 93 6 211 3 158 -5 224 -10 282 -26z m-566 -1963
c-3 -13 -21 -99 -40 -193 -19 -93 -37 -180 -40 -192 l-5 -23 -1299 0 -1300 0
-11 58 c-7 31 -27 128 -45 215 l-33 157 1389 0 1389 0 -5 -22z"/>
<path d="M1420 1910 l0 -530 155 0 155 0 0 530 0 530 -155 0 -155 0 0 -530z"/>
</g>
</svg>
