<?xml version="1.0" standalone="no"?>
<!DOCTYPE svg PUBLIC "-//W3C//DTD SVG 20010904//EN"
 "http://www.w3.org/TR/2001/REC-SVG-20010904/DTD/svg10.dtd">
<svg version="1.0" xmlns="http://www.w3.org/2000/svg"
 width="512.000000pt" height="512.000000pt" viewBox="0 0 512.000000 512.000000"
 preserveAspectRatio="xMidYMid meet">

<g transform="translate(0.000000,512.000000) scale(0.100000,-0.100000)"
fill="currentColor" stroke="none">
<path d="M2132 4919 c-218 -28 -461 -135 -659 -288 -617 -478 -884 -1363 -618
-2044 6 -14 -6 -23 -68 -51 -379 -173 -661 -485 -754 -834 -22 -84 -26 -118
-27 -252 0 -179 17 -267 82 -418 116 -270 365 -515 672 -661 779 -372 1782
-146 2199 494 25 38 55 89 65 113 12 26 24 41 32 38 109 -42 417 -54 579 -23
485 94 922 395 1209 834 340 519 365 1147 64 1555 -155 211 -382 351 -658 408
-92 19 -127 21 -280 17 -107 -3 -204 -12 -250 -22 -62 -13 -259 -75 -320 -99
-13 -6 -18 13 -28 121 -33 338 -150 609 -352 814 -230 232 -555 342 -888 298z
m218 -295 c0 -3 -15 -24 -34 -47 -113 -139 -266 -450 -331 -673 -40 -136 -54
-236 -70 -493 -19 -301 -47 -428 -140 -638 l-31 -73 -200 -4 c-119 -2 -235
-10 -289 -20 -49 -8 -93 -16 -96 -16 -11 0 -46 90 -68 172 -63 242 -49 534 40
803 47 143 158 356 248 476 205 272 484 457 761 504 78 14 210 19 210 9z m370
-139 c337 -247 452 -787 279 -1307 -84 -254 -247 -509 -430 -676 l-55 -51
-107 55 c-58 30 -161 73 -229 95 -68 23 -124 42 -126 44 -1 1 15 47 37 101 43
110 85 255 101 354 6 36 17 170 25 297 16 249 36 366 87 512 40 115 145 329
206 420 48 71 148 191 159 191 3 0 27 -16 53 -35z m1475 -990 c77 -16 195 -55
195 -64 -1 -3 -43 -34 -94 -69 -115 -77 -233 -179 -350 -303 -169 -180 -266
-329 -370 -570 -76 -176 -136 -293 -194 -374 -61 -87 -206 -249 -261 -293
l-41 -33 -16 38 c-55 133 -134 257 -233 364 l-68 74 85 90 c245 258 420 590
496 946 10 46 282 162 456 194 102 18 308 18 395 0z m487 -313 c44 -66 77
-138 105 -229 24 -81 27 -102 26 -253 0 -151 -2 -174 -30 -280 -72 -271 -207
-498 -422 -710 -219 -216 -478 -358 -761 -416 -104 -22 -307 -24 -402 -5 l-68
13 1 37 c1 92 8 105 109 189 184 153 356 351 464 532 26 45 85 166 131 271 89
203 142 296 238 418 75 95 224 241 319 314 78 60 236 157 254 157 6 0 23 -17
36 -38z m-2799 -811 c413 -83 745 -314 886 -619 14 -28 22 -55 18 -58 -3 -3
-36 1 -74 9 -133 30 -270 40 -492 34 -298 -8 -397 -30 -776 -177 -230 -89
-401 -116 -675 -107 -174 6 -297 24 -410 62 -57 19 -59 24 -34 118 98 378 503
679 1014 753 138 19 405 12 543 -15z m685 -947 c121 -18 262 -59 262 -77 -1
-36 -35 -148 -65 -214 -97 -210 -311 -404 -564 -514 -685 -295 -1560 -53
-1826 506 -19 41 -35 76 -35 78 0 2 37 -4 83 -14 123 -27 259 -39 424 -39 298
0 479 37 791 162 152 60 271 95 382 113 121 19 418 19 548 -1z"/>
</g>
</svg>
