<?xml version="1.0" standalone="no"?>
<!DOCTYPE svg PUBLIC "-//W3C//DTD SVG 20010904//EN"
 "http://www.w3.org/TR/2001/REC-SVG-20010904/DTD/svg10.dtd">
<svg version="1.0" xmlns="http://www.w3.org/2000/svg"
 width="512.000000pt" height="512.000000pt" viewBox="0 0 512.000000 512.000000"
 preserveAspectRatio="xMidYMid meet">

<g transform="translate(0.000000,512.000000) scale(0.100000,-0.100000)"
fill="currentColor" stroke="none">
<path d="M2330 4149 c-566 -64 -1180 -385 -1760 -921 -230 -212 -551 -575
-565 -639 -11 -50 4 -84 81 -180 281 -351 672 -712 1034 -954 783 -524 1509
-628 2270 -328 556 219 1158 686 1625 1261 95 116 112 149 100 201 -13 61
-336 428 -551 626 -604 559 -1197 869 -1789 935 -105 12 -338 11 -445 -1z
m420 -239 c261 -32 476 -98 745 -229 235 -115 509 -300 750 -505 186 -159 595
-582 595 -616 0 -34 -409 -457 -595 -616 -491 -418 -990 -667 -1462 -729 -722
-95 -1518 286 -2289 1095 -107 113 -214 237 -214 250 0 13 106 136 219 255
677 712 1393 1098 2046 1104 66 1 159 -4 205 -9z"/>
<path d="M2405 3523 c-136 -19 -323 -94 -439 -177 -135 -96 -274 -272 -336
-424 -55 -137 -65 -193 -64 -377 0 -197 15 -267 87 -419 131 -274 379 -471
678 -537 136 -30 355 -23 483 15 186 56 369 177 485 321 473 589 146 1460
-598 1590 -77 14 -225 18 -296 8z m360 -267 c126 -43 201 -90 295 -185 98 -99
140 -165 183 -288 29 -82 31 -98 31 -223 1 -157 -13 -220 -77 -350 -34 -70
-58 -102 -137 -181 -83 -84 -108 -102 -190 -142 -124 -59 -201 -77 -332 -77
-344 0 -633 224 -719 557 -24 96 -26 260 -3 352 59 241 235 438 468 526 96 36
155 44 286 41 93 -3 130 -9 195 -30z"/>
</g>
</svg>
