<?xml version="1.0" standalone="no"?>
<!DOCTYPE svg PUBLIC "-//W3C//DTD SVG 20010904//EN"
 "http://www.w3.org/TR/2001/REC-SVG-20010904/DTD/svg10.dtd">
<svg version="1.0" xmlns="http://www.w3.org/2000/svg"
 width="500.000000pt" height="500.000000pt" viewBox="0 0 500.000000 500.000000"
 preserveAspectRatio="xMidYMid meet">

<g transform="translate(0.000000,500.000000) scale(0.100000,-0.100000)"
fill="currentColor" stroke="none">
<path d="M1785 4980 c-60 -9 -149 -27 -197 -39 -135 -34 -447 -153 -517 -198
-16 -10 -58 -36 -93 -57 -322 -201 -663 -580 -782 -871 -149 -364 -196 -574
-196 -885 0 -302 43 -508 174 -830 54 -133 71 -167 138 -267 179 -270 384
-473 663 -655 126 -83 171 -105 325 -163 171 -64 302 -101 444 -128 104 -19
155 -22 361 -22 207 0 257 4 360 23 128 24 302 74 425 121 41 16 96 36 122 45
63 23 220 119 370 226 l47 33 158 -157 c360 -358 781 -771 970 -952 215 -206
226 -213 313 -201 78 10 130 74 130 159 0 25 -8 55 -19 73 -11 17 -102 113
-203 215 -245 248 -994 983 -1060 1041 l-52 46 62 74 c191 225 342 523 418
822 115 452 74 904 -121 1337 -26 58 -54 123 -62 145 -8 22 -18 42 -21 45 -4
3 -29 39 -56 80 -129 197 -330 412 -511 544 -109 80 -311 206 -330 206 -7 0
-42 13 -78 30 -176 80 -414 145 -617 170 -133 16 -437 11 -565 -10z m460 -310
c295 -26 512 -98 806 -267 199 -114 426 -341 558 -556 198 -324 282 -631 268
-977 -14 -321 -92 -571 -269 -856 -29 -47 -58 -95 -64 -106 -19 -33 -173 -200
-244 -263 -89 -81 -217 -179 -237 -184 -9 -2 -33 -14 -53 -26 -55 -35 -210
-111 -255 -125 -22 -7 -45 -16 -50 -21 -20 -15 -221 -67 -330 -84 -131 -21
-401 -24 -520 -6 -184 28 -359 84 -525 166 -201 101 -254 131 -301 175 -9 8
-51 44 -93 80 -100 84 -316 325 -316 352 0 4 -18 37 -40 73 -85 139 -154 296
-190 432 -118 447 -61 904 162 1289 28 49 59 103 67 120 32 63 207 259 313
351 134 116 140 121 167 134 14 8 54 30 89 51 330 196 690 281 1057 248z"/>
</g>
</svg>
