<?xml version="1.0" standalone="no"?>
<!DOCTYPE svg PUBLIC "-//W3C//DTD SVG 20010904//EN"
 "http://www.w3.org/TR/2001/REC-SVG-20010904/DTD/svg10.dtd">
<svg version="1.0" xmlns="http://www.w3.org/2000/svg"
 width="512.000000pt" height="512.000000pt" viewBox="0 0 512.000000 512.000000"
 preserveAspectRatio="xMidYMid meet">

<g transform="translate(0.000000,512.000000) scale(0.100000,-0.100000)"
fill="currentColor" stroke="none">
<path d="M2160 4970 l0 -149 448 -3 c441 -3 448 -3 489 -25 76 -41 115 -111
114 -205 0 -62 -17 -106 -60 -151 -54 -59 -66 -61 -321 -68 -202 -5 -244 -9
-301 -28 -130 -41 -249 -145 -309 -266 -43 -86 -60 -179 -60 -332 l0 -133
-750 0 -751 0 4 -792 c3 -774 4 -795 25 -890 50 -219 132 -413 252 -592 78
-117 252 -304 349 -376 33 -25 60 -48 61 -52 0 -5 -259 -8 -575 -8 l-576 0 3
-148 3 -147 204 -5 204 -5 207 -295 207 -295 1435 -3 1435 -2 209 300 209 299
203 1 202 0 0 150 0 150 -726 2 -725 3 85 67 c104 83 226 213 311 333 77 107
174 296 214 415 l28 85 316 3 316 2 10 38 c34 128 361 1444 361 1452 0 7 -160
10 -470 10 l-470 0 0 150 0 150 -752 2 -753 3 -3 109 c-4 161 8 208 72 271 67
68 101 75 339 75 270 0 373 33 493 155 100 102 144 214 144 371 0 202 -96 367
-268 457 -120 63 -152 67 -644 67 l-438 0 0 -150z m1507 -2252 c-4 -641 -5
-654 -63 -856 -101 -350 -337 -638 -656 -801 -111 -56 -257 -105 -383 -129
-137 -25 -399 -22 -532 6 -489 105 -846 420 -997 879 -69 210 -69 207 -73 881
l-4 612 1356 0 1356 0 -4 -592z m861 280 c-3 -7 -54 -210 -114 -450 l-109
-438 -174 0 -173 0 6 23 c3 12 6 214 6 450 l0 427 281 0 c221 0 280 -3 277
-12z m-611 -2445 c-18 -27 -66 -94 -106 -151 l-72 -102 -1277 0 -1277 0 -32
48 c-17 26 -63 93 -103 150 l-71 102 1486 0 1487 0 -35 -47z"/>
<path d="M1560 2527 c0 -300 2 -342 20 -411 29 -116 73 -190 165 -281 86 -86
165 -132 272 -160 70 -18 492 -21 575 -4 207 42 395 223 454 435 11 41 18 119
21 257 l6 197 -184 0 c-212 0 -288 -13 -391 -64 l-68 -34 -30 62 c-59 119
-165 224 -284 280 -95 45 -165 56 -368 56 l-188 0 0 -333z m437 -3 c57 -27
101 -72 135 -137 21 -39 23 -57 26 -236 l4 -194 -46 6 c-94 13 -179 76 -223
165 -27 55 -28 63 -31 246 l-4 189 44 -7 c24 -4 66 -18 95 -32z m763 -301 c0
-116 -129 -246 -257 -261 l-44 -5 6 39 c22 124 115 226 230 255 60 14 65 12
65 -28z"/>
</g>
</svg>
