<?xml version="1.0" standalone="no"?>
<!DOCTYPE svg PUBLIC "-//W3C//DTD SVG 20010904//EN"
 "http://www.w3.org/TR/2001/REC-SVG-20010904/DTD/svg10.dtd">
<svg version="1.0" xmlns="http://www.w3.org/2000/svg"
 width="512.000000pt" height="512.000000pt" viewBox="0 0 512.000000 512.000000"
 preserveAspectRatio="xMidYMid meet">

<g transform="translate(0.000000,512.000000) scale(0.100000,-0.100000)"
fill="currentColor" stroke="none">
<path d="M2473 5106 c-204 -66 -279 -300 -153 -476 l20 -28 -27 -6 c-16 -3
-62 -10 -103 -15 -151 -20 -361 -77 -510 -138 -298 -123 -541 -284 -765 -508
-369 -369 -592 -817 -661 -1325 -7 -58 -14 -111 -14 -117 0 -10 -33 -13 -130
-13 l-130 0 0 -155 0 -155 260 0 260 0 0 -110 0 -109 363 -179 364 -179 888
-137 c489 -76 908 -144 933 -151 57 -18 113 -57 136 -96 10 -17 21 -60 24 -95
l5 -64 -97 0 -96 0 0 -525 0 -525 890 0 890 0 0 525 0 525 -120 0 -120 0 0
407 0 408 -152 152 -153 153 423 0 422 0 0 155 0 155 -130 0 c-97 0 -130 3
-130 13 -1 38 -32 235 -50 317 -131 589 -506 1118 -1025 1447 -255 161 -594
287 -875 324 -41 5 -87 12 -103 15 l-27 6 20 28 c42 59 60 113 60 185 0 123
-68 229 -179 278 -57 25 -153 31 -208 13z m362 -832 c852 -116 1541 -785 1690
-1638 8 -49 15 -104 15 -122 l0 -34 -1980 0 -1980 0 0 34 c0 90 53 320 107
466 188 509 574 922 1069 1143 340 152 700 202 1079 151z m1208 -2320 l217
-216 0 -344 0 -344 -360 0 -360 0 0 68 c0 120 -41 234 -116 321 -71 82 -216
161 -339 186 -16 3 -417 65 -890 139 l-860 133 -247 124 c-137 68 -248 129
-248 136 0 10 299 13 1493 13 l1492 -1 218 -215z m457 -1434 l0 -210 -570 0
-570 0 0 210 0 210 570 0 570 0 0 -210z"/>
<path d="M1715 3752 c-285 -151 -505 -377 -658 -674 -49 -95 -107 -244 -107
-274 0 -12 274 -78 293 -71 7 3 20 29 30 58 9 30 37 94 63 144 123 239 292
414 518 536 l75 40 -35 77 c-20 42 -47 105 -62 139 -15 35 -31 63 -37 63 -5 0
-41 -17 -80 -38z"/>
<path d="M3477 613 c-4 -3 -7 -51 -7 -105 l0 -98 105 0 105 0 0 105 0 105 -98
0 c-54 0 -102 -3 -105 -7z"/>
</g>
</svg>
