<?xml version="1.0" standalone="no"?>
<!DOCTYPE svg PUBLIC "-//W3C//DTD SVG 20010904//EN"
 "http://www.w3.org/TR/2001/REC-SVG-20010904/DTD/svg10.dtd">
<svg version="1.0" xmlns="http://www.w3.org/2000/svg"
 width="512.000000pt" height="512.000000pt" viewBox="0 0 512.000000 512.000000"
 preserveAspectRatio="xMidYMid meet">

<g transform="translate(0.000000,512.000000) scale(0.100000,-0.100000)"
fill="currentColor" stroke="none">
<path d="M610 5103 c0 -10 27 -189 60 -398 l60 -379 0 -266 0 -265 -333 -190
-332 -190 -3 -1707 -2 -1708 1150 0 1150 0 0 146 0 146 28 -8 c15 -4 71 -8
125 -9 l98 -1 44 -57 c48 -60 123 -121 193 -156 63 -32 186 -61 257 -61 70 0
194 29 252 58 66 34 156 108 197 161 35 47 42 51 80 51 73 0 174 28 254 70
267 139 383 464 262 737 l-19 43 225 0 c244 0 271 -5 327 -58 59 -56 70 -93
75 -254 l4 -148 151 0 150 0 -6 162 c-6 179 -18 234 -68 328 -58 110 -186 214
-311 253 -15 5 -14 12 8 66 36 89 45 194 42 506 l-3 280 -185 0 c-153 -1 -194
-4 -240 -19 -79 -27 -139 -59 -198 -106 l-53 -41 -52 46 c-89 79 -222 132
-339 136 l-56 2 -69 76 c-121 131 -259 194 -428 195 -104 0 -178 -19 -276 -71
-67 -34 -166 -122 -196 -174 -16 -27 -19 -28 -97 -26 -45 1 -102 -2 -128 -6
l-48 -8 0 578 0 579 -332 190 -333 190 -3 248 -2 248 60 386 c33 213 63 399
66 415 l6 27 -606 0 c-571 0 -606 -1 -606 -17z m854 -320 c-3 -21 -16 -96 -28
-168 l-21 -130 -202 -3 -201 -2 -6 27 c-10 50 -46 283 -46 298 0 13 37 15 255
15 l255 0 -6 -37z m-74 -881 l0 -278 333 -190 332 -190 3 -97 3 -97 -666 0
-665 0 0 -1175 0 -1175 613 0 612 0 17 -47 c10 -27 33 -74 53 -107 33 -56 35
-63 35 -152 l0 -94 -850 0 -850 0 0 1469 0 1468 335 193 335 192 0 279 0 279
180 0 180 0 0 -278z m670 -1498 l0 -345 -39 -64 c-21 -35 -44 -84 -50 -108
l-13 -44 -68 5 c-44 3 -94 -1 -144 -12 -220 -49 -387 -211 -443 -429 -28 -112
-13 -257 42 -389 7 -17 -4 -18 -154 -18 l-161 0 0 875 0 875 515 0 515 0 0
-346z m1167 -190 c56 -27 91 -63 126 -128 31 -59 31 -174 -1 -234 -20 -37 -27
-43 -45 -38 -136 40 -256 44 -365 11 -64 -19 -74 -14 -96 52 -54 159 37 323
201 362 53 13 119 3 180 -25z m-694 -306 c7 -77 38 -167 78 -232 l30 -49 -45
-89 c-26 -49 -46 -96 -46 -105 0 -38 -166 10 -223 65 -106 100 -115 270 -22
380 44 50 125 92 181 92 l41 0 6 -62z m1193 47 c124 -52 199 -197 165 -322
-26 -95 -126 -193 -201 -196 -29 -2 -33 2 -54 54 -13 31 -35 74 -50 95 -22 33
-24 40 -11 54 34 38 86 168 97 248 7 45 14 82 15 82 2 0 20 -7 39 -15z m704
-139 c0 -162 -11 -228 -48 -281 -35 -50 -97 -94 -145 -102 l-37 -6 0 150 c0
106 5 165 16 202 25 86 117 169 187 171 l27 0 0 -134z m-2500 -275 c19 -5 35
-27 65 -87 22 -44 60 -104 84 -132 l45 -53 -36 -37 c-49 -52 -78 -96 -104
-161 -25 -62 -36 -68 -120 -70 -75 -1 -141 25 -194 79 -143 142 -87 386 102
451 54 19 113 22 158 10z m1260 -7 c74 -22 152 -100 174 -174 21 -71 20 -118
-4 -182 -57 -154 -231 -221 -379 -147 -102 51 -157 146 -149 258 6 82 33 136
94 190 76 67 164 85 264 55z m-625 -461 c10 -27 32 -70 48 -98 25 -43 27 -52
16 -70 -55 -89 -99 -218 -99 -297 0 -33 -3 -38 -23 -38 -51 0 -126 31 -171 71
-60 53 -87 107 -94 185 -12 159 104 291 259 293 46 1 46 1 64 -46z m1170 23
c105 -49 159 -135 159 -251 0 -110 -52 -194 -151 -244 -23 -12 -46 -21 -51
-21 -5 0 -12 24 -16 54 -9 78 -41 173 -79 237 -30 51 -32 58 -19 75 14 19 64
122 76 157 7 23 21 21 81 -7z m-765 -382 c74 -19 200 -17 285 5 39 11 73 17
77 15 14 -9 48 -116 48 -153 0 -148 -129 -281 -275 -281 -60 0 -135 30 -182
73 -60 55 -85 107 -91 188 -4 57 -1 75 22 124 21 46 29 56 43 50 10 -3 43 -13
73 -21z"/>
</g>
</svg>
